<?xml version="1.0" encoding="UTF-8" standalone="no"?>
<svg
   xmlns:dc="http://purl.org/dc/elements/1.1/"
   xmlns:cc="http://creativecommons.org/ns#"
   xmlns:rdf="http://www.w3.org/1999/02/22-rdf-syntax-ns#"
   xmlns:svg="http://www.w3.org/2000/svg"
   xmlns="http://www.w3.org/2000/svg"
   xmlns:sodipodi="http://sodipodi.sourceforge.net/DTD/sodipodi-0.dtd"
   xmlns:inkscape="http://www.inkscape.org/namespaces/inkscape"
   width="210mm"
   height="297mm"
   viewBox="0 0 210 297"
   version="1.1"
   id="svg8"
   inkscape:version="1.0.2 (e86c870879, 2021-01-15, custom)">
  <defs
     id="defs2" />
  <sodipodi:namedview
     id="base"
     pagecolor="#ffffff"
     bordercolor="#666666"
     borderopacity="1.0"
     inkscape:pageopacity="0.0"
     inkscape:pageshadow="2"
     inkscape:zoom="1.4"
     inkscape:cx="271.23693"
     inkscape:cy="597.6142"
     inkscape:document-units="mm"
     inkscape:current-layer="layer1"
     inkscape:document-rotation="0"
     showgrid="false"
     inkscape:window-width="1680"
     inkscape:window-height="987"
     inkscape:window-x="-8"
     inkscape:window-y="-8"
     inkscape:window-maximized="1" />
  <metadata
     id="metadata5">
    <rdf:RDF>
      <cc:Work
         rdf:about="">
        <dc:format>image/svg+xml</dc:format>
        <dc:type
           rdf:resource="http://purl.org/dc/dcmitype/StillImage" />
        <dc:title></dc:title>
      </cc:Work>
    </rdf:RDF>
  </metadata>
  <g
     inkscape:label="Layer 1"
     inkscape:groupmode="layer"
     id="layer1">
    <g
       id="g849"
       transform="translate(16.441964,7.7485123)">
      <path
         style="fill:#d6d6d6;fill-opacity:1;stroke-width:0.264583"
         d="m 94.597994,192.0941 c 0.254662,-0.0666 0.671381,-0.0666 0.926042,0 0.254662,0.0666 0.0463,0.121 -0.463021,0.121 -0.509323,0 -0.717682,-0.0545 -0.463021,-0.121 z m 2.645834,0 c 0.254661,-0.0666 0.67138,-0.0666 0.926042,0 0.254661,0.0666 0.0463,0.121 -0.463021,0.121 -0.509323,0 -0.717683,-0.0545 -0.463021,-0.121 z m -1.852084,-3.71453 c 0.545704,-0.0571 1.438672,-0.0571 1.984376,0 0.545703,0.0571 0.09922,0.10379 -0.992188,0.10379 -1.091406,0 -1.537891,-0.0467 -0.992188,-0.10379 z m -13.82277,-9.53069 c 0.0046,-0.53401 2.346513,-2.82858 4.049408,-3.96754 6.132487,-4.10166 15.398618,-4.10166 21.531098,0 1.7029,1.13896 4.04481,3.43353 4.04941,3.96754 9.4e-4,0.10914 -6.66579,0.19844 -14.814958,0.19844 -8.149167,0 -14.815897,-0.0893 -14.814958,-0.19844 z M 94.068828,160.3441 c 0.254661,-0.0666 0.67138,-0.0666 0.926041,0 0.254662,0.0666 0.0463,0.121 -0.46302,0.121 -0.509323,0 -0.717683,-0.0545 -0.463021,-0.121 z m 3.96875,0 c 0.254661,-0.0666 0.67138,-0.0666 0.926042,0 0.254661,0.0666 0.0463,0.121 -0.463021,0.121 -0.509323,0 -0.717683,-0.0545 -0.463021,-0.121 z M 82.75789,159.20356 c -0.08994,-0.14552 -0.03743,-0.26458 0.116676,-0.26458 0.154109,0 0.280199,0.11906 0.280199,0.26458 0,0.14553 -0.0525,0.26459 -0.116676,0.26459 -0.06417,0 -0.190262,-0.11906 -0.280199,-0.26459 z m 13.43264,-2.5646 c 0.257431,-0.0671 0.614619,-0.0627 0.79375,0.01 0.17913,0.0725 -0.03149,0.12736 -0.468056,0.12197 -0.436563,-0.005 -0.583126,-0.0647 -0.325694,-0.13178 z m -0.666494,-20.36479 c 0.181901,-0.0734 0.479557,-0.0734 0.661458,0 0.181902,0.0734 0.03307,0.13345 -0.330729,0.13345 -0.363802,0 -0.51263,-0.0601 -0.330729,-0.13345 z m 1.724827,-0.008 c 0.257432,-0.0671 0.614619,-0.0627 0.79375,0.01 0.179131,0.0725 -0.03149,0.12736 -0.468056,0.12197 -0.436562,-0.005 -0.583126,-0.0647 -0.325694,-0.13177 z M 48.725182,115.34888 c -0.329108,-0.41965 -0.319749,-0.42901 0.0999,-0.0999 0.254661,0.19972 0.46302,0.40808 0.46302,0.46302 0,0.21776 -0.217272,0.0776 -0.562915,-0.36312 z M 76.40789,107.8744 c 0.26339,-0.29105 0.538422,-0.52917 0.611182,-0.52917 0.07276,0 -0.08321,0.23812 -0.346599,0.52917 -0.26339,0.29104 -0.538422,0.52916 -0.611182,0.52916 -0.07276,0 0.08321,-0.23812 0.346599,-0.52916 z m 61.02823,-0.79375 c 0,-0.36381 0.0601,-0.51263 0.13346,-0.33073 0.0734,0.1819 0.0734,0.47955 0,0.66146 -0.0734,0.1819 -0.13346,0.0331 -0.13346,-0.33073 z m 7.40834,0 c 0,-0.36381 0.06,-0.51263 0.13345,-0.33073 0.0734,0.1819 0.0734,0.47955 0,0.66146 -0.0734,0.1819 -0.13345,0.0331 -0.13345,-0.33073 z m -87.862558,-0.41893 c 0.0127,-0.30822 0.07539,-0.37092 0.159853,-0.15985 0.07643,0.191 0.06703,0.4192 -0.02089,0.50712 -0.08792,0.0879 -0.150453,-0.0683 -0.138964,-0.34727 z m 18.367654,-3.02066 c 0.26339,-0.29104 0.538422,-0.52916 0.611183,-0.52916 0.07276,0 -0.08321,0.23812 -0.346599,0.52916 -0.26339,0.29104 -0.538422,0.52917 -0.611182,0.52917 -0.07276,0 0.08321,-0.23813 0.346598,-0.52917 z m 19.397267,-8.647405 c 0.190994,-0.07643 0.419197,-0.06703 0.507119,0.02089 0.08792,0.08792 -0.06835,0.150453 -0.347266,0.138965 -0.308226,-0.01269 -0.370919,-0.07539 -0.159853,-0.159853 z"
         id="path861" />
      <path
         style="fill:#c5c5c5;fill-opacity:1;stroke-width:0.264583"
         d="m 96.053203,192.10125 c 0.181901,-0.0734 0.479557,-0.0734 0.661458,0 0.181901,0.0734 0.03307,0.13346 -0.330729,0.13346 -0.363802,0 -0.51263,-0.0601 -0.330729,-0.13346 z m -29.195452,-12.06175 -0.504028,-0.59531 0.595312,0.50403 c 0.559446,0.47366 0.715762,0.6866 0.504029,0.6866 -0.05021,0 -0.318098,-0.2679 -0.595313,-0.59532 z m 59.556389,-0.7276 c 0.71666,-0.72761 1.36256,-1.32292 1.43532,-1.32292 0.0728,0 -0.45407,0.59531 -1.17074,1.32292 -0.71666,0.7276 -1.36255,1.32292 -1.43531,1.32292 -0.0728,0 0.45407,-0.59532 1.17073,-1.32292 z m -61.006485,-0.72761 -0.641432,-0.7276 0.727604,0.64143 c 0.680056,0.59952 0.848939,0.81378 0.641432,0.81378 -0.04739,0 -0.374814,-0.32742 -0.727604,-0.72761 z m 13.215443,-17.99166 c -0.329107,-0.41965 -0.319749,-0.42901 0.0999,-0.0999 0.254661,0.19972 0.463021,0.40808 0.463021,0.46302 0,0.21776 -0.217273,0.0776 -0.562917,-0.36312 z m 17.301451,-0.25601 c 0.402183,-0.0608 0.997495,-0.0592 1.322917,0.004 0.325422,0.0628 -0.0036,0.11256 -0.731242,0.11057 -0.727605,-0.002 -0.993857,-0.0534 -0.591675,-0.11418 z m -1.455761,-3.70143 c 0.329118,-0.0633 0.805368,-0.0609 1.058333,0.005 0.252966,0.0662 -0.01632,0.118 -0.598397,0.11507 -0.582084,-0.003 -0.789054,-0.0571 -0.459936,-0.12041 z m 3.175,0 c 0.329118,-0.0633 0.805368,-0.0609 1.058333,0.005 0.252966,0.0662 -0.01633,0.118 -0.598397,0.11507 -0.582084,-0.003 -0.789054,-0.0571 -0.459936,-0.12041 z M 79.152265,144.18846 c -0.329108,-0.41965 -0.319749,-0.429 0.0999,-0.0999 0.254661,0.19972 0.463021,0.40808 0.463021,0.46302 0,0.21777 -0.217274,0.0776 -0.562917,-0.36312 z m 33.900415,0.36312 c 0,-0.0549 0.20836,-0.2633 0.46302,-0.46302 0.41965,-0.3291 0.42901,-0.31975 0.0999,0.0999 -0.34564,0.44073 -0.56292,0.58089 -0.56292,0.36312 z m -35.41239,-4.39802 c 0,-0.3638 0.06006,-0.51263 0.133453,-0.33073 0.0734,0.18191 0.0734,0.47956 0,0.66146 -0.0734,0.1819 -0.133453,0.0331 -0.133453,-0.33073 z m 37.30625,0 c 0,-0.3638 0.0601,-0.51263 0.13345,-0.33073 0.0734,0.18191 0.0734,0.47956 0,0.66146 -0.0734,0.1819 -0.13345,0.0331 -0.13345,-0.33073 z M 80.141132,129.73824 c -2.103538,-1.27332 -2.85273,-3.82509 -1.754857,-5.9771 1.480645,-2.90231 5.611807,-3.23338 7.612684,-0.6101 0.996336,1.30627 1.116021,3.50255 0.270211,4.95859 -1.240068,2.13475 -4.0557,2.88304 -6.128038,1.62861 z m 28.022148,0.0207 c -3.0986,-1.75495 -2.93314,-6.46131 0.28076,-7.9864 1.30408,-0.61883 3.43032,-0.44967 4.57273,0.3638 0.4629,0.32962 1.07707,1.06078 1.36482,1.62481 2.02464,3.96864 -2.35035,8.18848 -6.21831,5.99779 z M 74.291223,104.6994 c 0.26339,-0.29105 0.538422,-0.52917 0.611182,-0.52917 0.07276,0 -0.08321,0.23812 -0.346599,0.52917 -0.26339,0.29104 -0.538421,0.52916 -0.611182,0.52916 -0.07276,0 0.08321,-0.23812 0.346599,-0.52916 z m 21.633326,-9.714864 c 0.402183,-0.06082 0.997495,-0.05919 1.322917,0.0036 0.325422,0.0628 -0.0036,0.11256 -0.731242,0.110573 -0.727605,-0.002 -0.993857,-0.05337 -0.591675,-0.114185 z"
         id="path859" />
      <path
         style="fill:#b5b5b5;fill-opacity:1;stroke-width:0.264583"
         d="m 68.725027,176.8645 -1.312971,-1.38906 1.389063,1.31297 c 1.29074,1.22004 1.5104,1.46516 1.312971,1.46516 -0.04185,0 -0.66693,-0.62508 -1.389063,-1.38907 z m 55.043283,0.0662 c 0.71666,-0.72761 1.36255,-1.32292 1.43531,-1.32292 0.0728,0 -0.45407,0.59531 -1.17073,1.32292 -0.71666,0.7276 -1.36256,1.32292 -1.43532,1.32292 -0.0728,0 0.45407,-0.59532 1.17074,-1.32292 z m -27.974952,-9.18759 c 0.475549,-0.0589 1.189924,-0.0577 1.5875,0.003 0.397576,0.0604 0.0085,0.10855 -0.864634,0.10707 -0.873125,-0.002 -1.198415,-0.0509 -0.722866,-0.10977 z m 19.508282,-8.27491 c 0.56839,-0.58209 1.09297,-1.05834 1.16573,-1.05834 0.0728,0 -0.33276,0.47625 -0.90115,1.05834 -0.56838,0.58208 -1.09296,1.05833 -1.16572,1.05833 -0.0728,0 0.33275,-0.47625 0.90114,-1.05833 z m -37.981951,-0.19844 -0.911799,-0.99219 0.992187,0.9118 c 0.923507,0.84868 1.113841,1.07258 0.911799,1.07258 -0.04421,0 -0.490698,-0.44649 -0.992187,-0.99219 z m 16.104217,-2.62814 c 0.190995,-0.0764 0.419198,-0.067 0.507119,0.0209 0.08792,0.0879 -0.06835,0.15045 -0.347266,0.13896 -0.308226,-0.0127 -0.370919,-0.0754 -0.159853,-0.15985 z m 5.820833,0 c 0.190995,-0.0764 0.419198,-0.067 0.507119,0.0209 0.08792,0.0879 -0.06835,0.15045 -0.347265,0.13896 -0.308227,-0.0127 -0.37092,-0.0754 -0.159854,-0.15985 z m -40.349655,-2.3328 c 0.0015,-0.87312 0.05088,-1.19841 0.109765,-0.72286 0.05889,0.47555 0.05767,1.18992 -0.0027,1.5875 -0.06037,0.39757 -0.108551,0.008 -0.107065,-0.86464 z m 74.867156,0.39688 c 0,-0.65485 0.0516,-0.92274 0.11467,-0.59531 0.0631,0.32742 0.0631,0.8632 0,1.19062 -0.0631,0.32742 -0.11467,0.0595 -0.11467,-0.59531 z m -62.9106,-6.61459 c 0.26339,-0.29104 0.538421,-0.52916 0.611182,-0.52916 0.07276,0 -0.08321,0.23812 -0.346599,0.52916 -0.26339,0.29105 -0.538422,0.52917 -0.611182,0.52917 -0.07276,0 0.08321,-0.23812 0.346599,-0.52917 z m 50.77486,-0.0661 -0.50403,-0.59531 0.59532,0.50402 c 0.32742,0.27722 0.59531,0.54511 0.59531,0.59532 0,0.21173 -0.21293,0.0554 -0.6866,-0.50403 z M 96.057942,132.55348 c 0.475548,-0.0589 1.189923,-0.0577 1.5875,0.003 0.397576,0.0604 0.0085,0.10855 -0.864635,0.10706 -0.873125,-0.002 -1.198414,-0.0509 -0.722865,-0.10976 z m 43.154738,-19.85044 c -0.3291,-0.41964 -0.31975,-0.429 0.0999,-0.0999 0.44073,0.34564 0.58089,0.56291 0.36312,0.56291 -0.0549,0 -0.2633,-0.20836 -0.46302,-0.46302 z m 9.36623,-5.62239 c 0,-0.65485 0.0516,-0.92274 0.11466,-0.59532 0.0631,0.32743 0.0631,0.86321 0,1.19063 -0.0631,0.32742 -0.11466,0.0595 -0.11466,-0.59531 z m -102.678816,0.13229 c 0.0054,-0.43656 0.06469,-0.58313 0.131774,-0.3257 0.06708,0.25744 0.06267,0.61462 -0.0098,0.79375 -0.07248,0.17914 -0.127363,-0.0315 -0.121971,-0.46805 z m 95.148816,-6.66303 c 0.19099,-0.0764 0.4192,-0.067 0.50712,0.0209 0.0879,0.0879 -0.0684,0.15046 -0.34727,0.13897 -0.30823,-0.0127 -0.37092,-0.0754 -0.15985,-0.15985 z M 95.920911,98.689054 c 0.400182,-0.06062 1.055026,-0.06062 1.455209,0 0.400182,0.06062 0.07276,0.110223 -0.727605,0.110223 -0.800364,0 -1.127786,-0.0496 -0.727604,-0.110223 z"
         id="path857" />
      <path
         style="fill:#a5a5a5;fill-opacity:1;stroke-width:0.264583"
         d="M 91.224557,191.75321 C 74.101226,189.31504 59.32789,176.40596 56.010645,160.98297 c -0.226146,-1.05144 -0.479534,-3.31068 -0.563084,-5.02055 l -0.151908,-3.10886 1.824868,-0.0467 1.824868,-0.0467 -1.852083,-0.17114 -1.852083,-0.17114 1.766537,-0.0467 c 1.412815,-0.0374 1.783666,-0.13481 1.852083,-0.48665 0.04705,-0.24195 0.100946,0.97844 0.119769,2.71198 0.05584,5.14309 0.948555,8.72571 3.348376,13.43765 4.991453,9.80049 15.110337,17.29278 26.730052,19.79164 2.193819,0.47178 3.557707,0.57971 7.325892,0.57971 3.768188,0 5.132068,-0.10793 7.325888,-0.57971 9.52823,-2.04908 18.33005,-7.61735 23.85714,-15.09267 2.01913,-2.73085 4.31667,-7.34578 5.18463,-10.41408 0.75171,-2.65732 1.29057,-7.22713 1.04594,-8.87011 l -0.16743,-1.12448 1.94827,0.0467 1.94827,0.0467 -1.85208,0.17114 -1.85209,0.17114 1.82487,0.0467 1.82487,0.0467 -0.15191,3.10886 c -0.0836,1.70987 -0.33476,3.95878 -0.55825,4.99758 -2.69195,12.51243 -13.01436,23.66138 -26.5078,28.63034 -4.18045,1.53946 -7.96707,2.214 -12.944276,2.30588 -2.473855,0.0457 -5.212292,-0.0187 -6.085417,-0.14301 z M 91.621432,167.293 c -2.386529,-0.52973 -4.236046,-1.21 -6.614584,-2.43292 -2.873515,-1.4774 -5.16188,-3.21179 -7.739062,-5.86555 -1.883336,-1.93929 -2.050521,-2.20021 -2.050521,-3.20016 0,-1.18897 0.689909,-2.14706 1.546079,-2.14706 0.268261,0 1.131464,0.22134 1.918229,0.49187 9.969244,3.4279 25.306037,3.43795 35.510647,0.0233 1.28158,-0.42885 2.60258,-0.77972 2.93555,-0.77972 0.82689,0 1.48116,0.79648 1.48116,1.80308 0,0.69871 -0.43364,1.28559 -2.65096,3.58768 -4.52116,4.69403 -9.04028,7.32359 -14.6304,8.51305 -2.17217,0.46219 -7.636594,0.46583 -9.706138,0.006 z m 8.940838,-3.48148 c 1.12166,-0.23052 2.90739,-0.77942 3.96829,-1.21977 1.85652,-0.77058 6.0487,-3.30397 5.82971,-3.52296 -0.0585,-0.0585 -1.06805,0.0615 -2.2434,0.26667 -6.50515,1.13565 -16.01863,1.20623 -22.174582,0.16451 -1.74108,-0.29463 -3.202837,-0.49845 -3.248348,-0.45294 -0.315082,0.31508 4.520586,3.1329 6.810825,3.96877 3.330366,1.21549 7.540763,1.51848 11.057505,0.79572 z m -35.379969,-6.09885 c -0.449199,-0.57106 -0.54837,-1.07347 -0.54837,-2.77812 v -2.08099 h 1.852083 1.852084 v 2.08099 c 0,2.44702 -0.547987,3.47526 -1.852084,3.47526 -0.500872,0 -0.940085,-0.23486 -1.303713,-0.69714 z m 59.795839,0 c -0.4492,-0.57106 -0.54837,-1.07347 -0.54837,-2.77812 v -2.08099 h 1.85208 1.85208 v 2.08099 c 0,2.44702 -0.54798,3.47526 -1.85208,3.47526 -0.50087,0 -0.94009,-0.23486 -1.30371,-0.69714 z m -59.484313,-5.31643 c 0.545703,-0.0571 1.438672,-0.0571 1.984375,0 0.545703,0.0571 0.09922,0.10379 -0.992188,0.10379 -1.091406,0 -1.53789,-0.0467 -0.992187,-0.10379 z m 59.795833,0 c 0.54571,-0.0571 1.43867,-0.0571 1.98438,0 0.5457,0.0571 0.0992,0.10379 -0.99219,0.10379 -1.09141,0 -1.53789,-0.0467 -0.99219,-0.10379 z m 11.861,-1.28452 c 0.0127,-0.30822 0.0754,-0.37091 0.15985,-0.15985 0.0764,0.191 0.067,0.4192 -0.0209,0.50712 -0.0879,0.0879 -0.15045,-0.0684 -0.13896,-0.34727 z m -81.735369,-0.90399 c 0,-0.3638 0.06005,-0.51263 0.133452,-0.33073 0.0734,0.1819 0.0734,0.47956 0,0.66146 -0.0734,0.1819 -0.133452,0.0331 -0.133452,-0.33073 z m 12.790515,-4.49792 c 0.26339,-0.29104 0.538422,-0.52916 0.611182,-0.52916 0.07276,0 -0.08321,0.23812 -0.346598,0.52916 -0.263391,0.29105 -0.538422,0.52917 -0.611183,0.52917 -0.07276,0 0.08321,-0.23812 0.346599,-0.52917 z m 56.066534,-0.0661 -0.50403,-0.59531 0.59531,0.50402 c 0.55945,0.47367 0.71576,0.6866 0.50403,0.6866 -0.0502,0 -0.3181,-0.26789 -0.59531,-0.59531 z m -28.219137,-0.10908 c 0.181901,-0.0734 0.479557,-0.0734 0.661458,0 0.181901,0.0734 0.03307,0.13345 -0.330729,0.13345 -0.363802,0 -0.51263,-0.0601 -0.330729,-0.13345 z M 70.454765,142.6995 c 0,-0.0549 0.208359,-0.2633 0.46302,-0.46302 0.419646,-0.32911 0.429004,-0.31975 0.0999,0.0999 -0.345644,0.44073 -0.562917,0.58088 -0.562917,0.36312 z m 51.295415,-0.36312 c -0.3291,-0.41965 -0.31975,-0.42901 0.0999,-0.0999 0.25466,0.19972 0.46302,0.40808 0.46302,0.46302 0,0.21776 -0.21727,0.0776 -0.56292,-0.36312 z m -33.866665,-0.26459 c -0.329107,-0.41964 -0.319749,-0.429 0.0999,-0.0999 0.254661,0.19972 0.463021,0.40808 0.463021,0.46302 0,0.21776 -0.217273,0.0776 -0.562917,-0.36313 z m 16.437915,0.36313 c 0,-0.0549 0.20836,-0.2633 0.46302,-0.46302 0.41965,-0.32911 0.42901,-0.31975 0.0999,0.0999 -0.34564,0.44073 -0.56292,0.58089 -0.56292,0.36313 z m -20.951691,-0.34543 c 0.190995,-0.0764 0.419198,-0.067 0.507119,0.0209 0.08792,0.0879 -0.06835,0.15045 -0.347266,0.13896 -0.308226,-0.0127 -0.370919,-0.0754 -0.159853,-0.15985 z m 25.664581,0 c 0.191,-0.0764 0.4192,-0.067 0.50712,0.0209 0.0879,0.0879 -0.0683,0.15045 -0.34726,0.13896 -0.30823,-0.0127 -0.37092,-0.0754 -0.15986,-0.15985 z M 84.163489,114.83741 c 0.190995,-0.0764 0.419198,-0.067 0.507119,0.0209 0.08792,0.0879 -0.06835,0.15046 -0.347266,0.13897 -0.308226,-0.0127 -0.370919,-0.0754 -0.159853,-0.15985 z m 24.341671,0 c 0.19099,-0.0764 0.4192,-0.067 0.50712,0.0209 0.0879,0.0879 -0.0684,0.15046 -0.34727,0.13897 -0.30823,-0.0127 -0.37092,-0.0754 -0.15985,-0.15985 z m -32.229562,-0.44833 c 0,-0.0549 0.208359,-0.2633 0.463021,-0.46302 0.419645,-0.3291 0.429003,-0.31975 0.0999,0.0999 -0.345644,0.44073 -0.562917,0.58089 -0.562917,0.36312 z m -13.90727,-2.87666 -0.777105,-0.8599 0.859896,0.77711 c 0.801544,0.72437 0.981511,0.94268 0.777105,0.94268 -0.04553,0 -0.432488,-0.38695 -0.859896,-0.85989 z m 69.734352,-0.0662 c 0.49366,-0.50932 0.95709,-0.92604 1.02985,-0.92604 0.0728,0 -0.27161,0.41672 -0.76526,0.92604 -0.49366,0.50932 -0.95709,0.92604 -1.02985,0.92604 -0.0728,0 0.27161,-0.41672 0.76526,-0.92604 z m -16.15961,-4.29948 -0.64143,-0.7276 0.72761,0.64143 c 0.40018,0.35279 0.7276,0.68021 0.7276,0.72761 0,0.2075 -0.21426,0.0386 -0.81378,-0.64144 z m 29.61961,-8.202081 c -0.3291,-0.419644 -0.31975,-0.429003 0.0999,-0.0999 0.44073,0.345643 0.58089,0.562915 0.36312,0.562915 -0.0549,0 -0.2633,-0.208359 -0.46302,-0.46302 z M 94.465703,98.703334 c 0.181901,-0.0734 0.479557,-0.0734 0.661458,0 0.181901,0.0734 0.03307,0.133452 -0.330729,0.133452 -0.363802,0 -0.51263,-0.06005 -0.330729,-0.133452 z"
         id="path855" />
      <path
         style="fill:#949494;fill-opacity:1;stroke-width:0.264583"
         d="m 56.095217,152.66261 c 0.469697,-0.0584 1.303134,-0.0594 1.852083,-0.002 0.548949,0.0573 0.164652,0.1051 -0.853994,0.10627 -1.018646,0.001 -1.467786,-0.0457 -0.998089,-0.10413 z m 9.39861,-0.002 c 0.545703,-0.0571 1.438672,-0.0571 1.984375,0 0.545703,0.0571 0.09922,0.10379 -0.992188,0.10379 -1.091406,0 -1.53789,-0.0467 -0.992187,-0.10379 z m 59.795833,0 c 0.54571,-0.0571 1.43867,-0.0571 1.98438,0 0.5457,0.0571 0.0992,0.10379 -0.99219,0.10379 -1.09141,0 -1.53789,-0.0467 -0.99219,-0.10379 z m 9.38681,0.002 c 0.4697,-0.0584 1.30313,-0.0594 1.85208,-0.002 0.54895,0.0573 0.16465,0.1051 -0.85399,0.10627 -1.01865,0.001 -1.46779,-0.0457 -0.99809,-0.10413 z m -79.152783,-2.65332 c 0.570207,-8.61337 1.962698,-14.17577 5.837785,-23.31939 1.072248,-2.53007 1.949542,-4.64393 1.949542,-4.69746 0,-0.20562 -4.386301,-3.33741 -5.395058,-3.85204 -0.72337,-0.36904 -1.892656,-0.60678 -3.672025,-0.7466 -2.203503,-0.17316 -2.802473,-0.32372 -3.840274,-0.96534 -2.571796,-1.59002 -4.028704,-4.51045 -4.229476,-8.47816 -0.06784,-1.3407 -0.04754,-2.73968 0.04512,-3.10885 0.159989,-0.63745 0.260332,-0.67122 1.994181,-0.67122 h 1.825715 l -0.275056,0.99219 c -0.384681,1.38763 -0.09056,4.26424 0.600163,5.86987 1.535804,3.57007 4.475003,3.54938 6.098484,-0.0429 0.534415,-1.18251 0.629388,-1.80701 0.623083,-4.09708 l -0.0074,-2.70191 1.991814,-0.0762 1.991814,-0.0762 1.017184,1.45521 c 1.126835,1.61207 3.356844,3.98674 5.236357,5.57602 l 1.226458,1.03708 1.588505,-2.18207 c 0.873675,-1.20014 2.326616,-2.98575 3.228753,-3.96801 l 1.640247,-1.78594 h 2.591433 2.591432 l -2.949088,2.97656 c -1.621999,1.63711 -3.685807,4.04813 -4.58624,5.35781 -2.555068,3.71638 -2.666611,3.83646 -3.563499,3.83646 -0.933666,0 -4.13308,-2.39232 -6.690343,-5.00261 -0.86857,-0.88659 -1.658991,-1.61197 -1.756492,-1.61197 -0.0975,0 -0.253634,0.40703 -0.346963,0.90452 -0.09333,0.49749 -0.502966,1.56525 -0.910305,2.3728 l -0.740615,1.46828 1.608463,0.94656 c 2.708942,1.59418 6.747854,4.85172 6.933737,5.59234 0.123738,0.49301 -0.358735,1.8959 -1.837031,5.34154 -2.775108,6.46826 -3.764205,9.09961 -4.557187,12.12372 -0.815932,3.11162 -1.704852,8.86093 -1.711575,11.07003 -0.0082,2.7067 -0.06003,2.77813 -2.014384,2.77813 H 55.37047 Z m 9.110244,0.87712 c 0,-2.05785 0.293571,-2.59629 2.110457,-3.87076 0.960991,-0.6741 2.197984,-1.90641 3.049966,-3.03843 0.78831,-1.04742 1.650786,-1.96128 1.916615,-2.03079 0.757902,-0.1982 1.628979,0.24352 1.974144,1.00108 0.269116,0.59064 0.226621,0.86053 -0.288346,1.83124 -0.752856,1.41915 -2.851668,3.79592 -4.107098,4.65102 -0.836819,0.56997 -0.948166,0.7775 -0.949764,1.77015 l -0.0018,1.12448 h -1.852084 -1.852083 z m 59.794029,0.31351 c -0.002,-0.99265 -0.11295,-1.20018 -0.94977,-1.77015 -1.25542,-0.8551 -3.35424,-3.23187 -4.10709,-4.65102 -0.51497,-0.97071 -0.55746,-1.2406 -0.28835,-1.83124 0.34517,-0.75756 1.21624,-1.19928 1.97414,-1.00108 0.26583,0.0695 1.12831,0.98337 1.91662,2.03079 0.85198,1.13202 2.08898,2.36433 3.04997,3.03843 1.81688,1.27447 2.11045,1.81291 2.11045,3.87076 v 1.43799 h -1.85208 -1.85208 l -0.002,-1.12448 z m 9.25738,-0.26458 c -0.0181,-5.19388 -2.08955,-13.53031 -5.5849,-22.47638 -2.05339,-5.2555 -2.33147,-6.34054 -1.79165,-6.99098 0.56735,-0.68362 7.54923,-5.86056 8.68591,-6.44045 l 1.04307,-0.53213 -0.62149,-1.12769 c -0.34182,-0.62023 -0.77243,-1.66347 -0.95692,-2.31831 -0.18449,-0.65485 -0.37204,-1.23878 -0.41677,-1.29763 -0.0447,-0.0588 -1.12459,0.89507 -2.39968,2.11982 -2.79198,2.68174 -6.51902,5.52781 -7.23888,5.52781 -0.69692,0 -1.276,-0.67348 -3.41251,-3.96875 -2.0447,-3.15366 -4.13871,-5.63894 -6.55978,-7.78544 l -1.66364,-1.47498 h 2.55594 c 2.38229,0 2.53374,-0.0315 2.22924,-0.46302 -0.17969,-0.25466 0.52066,0.42995 1.55633,1.52135 1.03566,1.09141 2.62662,3.04044 3.53545,4.33118 2.69362,3.82556 2.17488,3.59076 4.21472,1.90764 2.36982,-1.9554 3.98159,-3.63916 5.46552,-5.70965 l 1.23259,-1.71979 2.15864,0.0764 2.15864,0.0765 -0.27221,0.98188 c -0.38214,1.3784 -0.0857,4.25851 0.60301,5.85956 2.03694,4.73501 6.28723,2.78175 6.77815,-3.11496 0.0807,-0.9695 0.023,-2.20921 -0.12831,-2.75491 l -0.27506,-0.99219 h 1.80245 c 2.14117,0 2.1249,-0.023 2.12051,2.9982 -0.006,4.34216 -1.58223,7.68958 -4.39666,9.33894 -0.93462,0.54772 -1.68766,0.72586 -3.75538,0.88834 -1.78687,0.14042 -2.9238,0.37539 -3.67801,0.76016 -1.35354,0.69053 -6.43014,4.51037 -6.60707,4.97143 -0.0714,0.18607 0.49333,1.9202 1.25495,3.85364 3.45985,8.78309 5.39586,16.53023 5.88704,23.55752 l 0.12483,1.78594 h -1.82161 -1.82162 l -0.005,-1.38906 z m -40.156625,-2.18947 c -1.872895,-0.40668 -4.073498,-1.35125 -5.945968,-2.55219 -1.151006,-0.73821 -1.386628,-0.79272 -2.711138,-0.62724 -4.181504,0.52245 -7.001296,-1.67471 -7.007034,-5.45982 -0.0011,-0.73703 0.167579,-1.10596 0.695663,-1.52135 0.383426,-0.30161 0.843619,-0.54837 1.022652,-0.54837 0.750837,0 1.719792,1.09567 1.719792,1.9447 0,1.0776 0.588213,1.92307 1.452933,2.08837 0.370932,0.0709 1.594754,0.0377 2.719599,-0.0737 l 2.045176,-0.20263 1.113631,0.90858 c 2.595177,2.11734 6.34446,3.2005 9.403557,2.71665 1.975552,-0.31247 4.562472,-1.46526 6.096262,-2.71665 l 1.11363,-0.90858 2.04518,0.20263 c 1.12484,0.11145 2.34867,0.14462 2.7196,0.0737 0.86472,-0.1653 1.45293,-1.01077 1.45293,-2.08837 0,-0.60093 0.20309,-1.00772 0.69714,-1.39633 0.87218,-0.68605 1.17313,-0.68605 2.04531,0 0.52808,0.41539 0.69678,0.78432 0.69566,1.52135 -0.006,3.78949 -2.82492,5.98234 -7.01755,5.45851 -1.30093,-0.16254 -1.5691,-0.10813 -2.44655,0.49643 -2.48555,1.71253 -6.653111,3.10158 -9.18755,3.06221 -0.582083,-0.009 -1.8074,-0.1791 -2.722925,-0.3779 z m -6.203519,-11.24751 c -0.68884,-0.41631 -1.029007,-1.21994 -0.838194,-1.98019 0.365723,-1.45716 3.946234,-2.50294 9.235472,-2.69746 4.118115,-0.15144 6.847986,0.21808 9.545166,1.29209 1.94763,0.77553 2.57945,1.67992 1.95586,2.79962 -0.52838,0.94876 -1.43584,1.04222 -3.42738,0.35301 -3.67461,-1.27167 -9.419436,-1.39616 -13.10073,-0.28388 -2.621576,0.79209 -2.855381,0.82795 -3.370194,0.51681 z M 77.069348,117.21578 c -0.620662,-0.22182 -1.058333,-0.91126 -1.058333,-1.66713 0,-0.95051 1.332711,-2.1715 3.448272,-3.15921 2.115087,-0.98748 4.384154,-1.2681 6.661193,-0.8238 1.705173,0.33272 4.726546,1.74758 5.731788,2.6841 0.776012,0.72297 0.762584,2.18605 -0.02514,2.73778 -0.840991,0.58905 -1.203031,0.52475 -2.882733,-0.51202 -3.520401,-2.17292 -6.421456,-2.13813 -9.758395,0.117 -1.208608,0.81678 -1.409615,0.87597 -2.116666,0.62328 z m 23.871372,-0.22826 c -0.92871,-0.6505 -0.80259,-2.06688 0.27186,-3.05297 2.1183,-1.94409 5.76685,-2.95257 8.80145,-2.43277 3.19069,0.54654 6.74282,2.6296 6.74282,3.95416 0,2.00799 -1.22603,2.30073 -3.77554,0.90148 -3.62107,-1.98735 -6.17526,-1.98686 -9.15327,0.002 -1.7326,1.15699 -2.03774,1.22339 -2.88732,0.62832 z M 75.878723,103.37648 c 0.26339,-0.29104 0.538422,-0.52917 0.611182,-0.52917 0.07276,0 -0.08321,0.23813 -0.346599,0.52917 -0.26339,0.29104 -0.538421,0.52917 -0.611182,0.52917 -0.07276,0 0.08321,-0.23813 0.346599,-0.52917 z m -24.738542,-1.6874 c 0,-0.0549 0.208359,-0.2633 0.463021,-0.46302 0.419644,-0.3291 0.429002,-0.31975 0.09989,0.0999 -0.345643,0.44073 -0.562915,0.58089 -0.562915,0.36312 z m 91.776669,-0.36312 c -0.32911,-0.41965 -0.31975,-0.429 0.0999,-0.0999 0.44073,0.34565 0.58088,0.56292 0.36312,0.56292 -0.0549,0 -0.2633,-0.20836 -0.46302,-0.46302 z"
         id="path853" />
      <path
         style="display:inline;fill:#848484;fill-opacity:1;stroke-width:0.264583"
         d="m 46.517656,103.57492 c 0.417858,-1.41633 1.435079,-3.34085 2.266102,-4.287335 1.086249,-1.23717 3.166009,-2.255936 4.605381,-2.255936 1.298255,0 3.461946,0.988054 4.405732,2.011887 0.605306,0.656646 3.134893,4.704334 3.134893,5.016264 0,0.0607 -0.922734,0.1058 -2.050521,0.10015 l -2.05052,-0.0103 -0.643043,-1.32056 c -0.650054,-1.33495 -1.881915,-2.36394 -2.827771,-2.36206 -0.968259,0.002 -2.148601,0.99758 -2.781744,2.3465 l -0.626609,1.33499 -1.803768,0.0108 c -1.748272,0.0105 -1.798363,-0.007 -1.628132,-0.58446 z m 30.185398,-0.7553 c 10.761046,-9.745254 27.064386,-10.196751 38.527166,-1.06695 3.08773,2.45929 3.08593,2.41756 0.10443,2.41756 -2.46827,0 -2.58339,-0.0271 -3.80271,-0.89541 -0.69156,-0.49247 -2.03129,-1.28337 -2.97717,-1.75755 -8.664426,-4.34354 -18.884714,-3.721023 -26.77455,1.63084 -1.489239,1.01018 -1.536396,1.02212 -4.037698,1.02212 h -2.530858 z m 56.987126,1.24018 c 0,-0.31193 2.52959,-4.359618 3.1349,-5.016264 0.94378,-1.023833 3.10747,-2.011887 4.40573,-2.011887 2.36688,0 4.89102,1.909034 6.0993,4.612961 1.16971,2.61765 1.20035,2.52779 -0.85595,2.5101 l -1.80377,-0.0155 -0.67086,-1.37354 c -1.5107,-3.093083 -4.22276,-2.919681 -5.73657,0.36678 l -0.47174,1.02415 -2.05052,0.007 c -1.12778,0.004 -2.05052,-0.0429 -2.05052,-0.1036 z"
         id="path851" />
    </g>
    <path
       style="fill:#000000;stroke-width:0.264583"
       id="path847"
       d="" />
  </g>
</svg>
