<svg width="428" height="494" viewBox="0 0 428 494" fill="none" xmlns="http://www.w3.org/2000/svg">
<g filter="url(#filter0_dd)">
<path d="M124.801 176.586C116.301 215.351 117.408 237.661 135.801 231.586C149.412 227.091 146.885 199.851 146.885 199.851C146.885 199.851 147.759 171.228 152.885 153.851C158.024 136.427 161.812 126.254 172.885 111.851C189.785 89.8692 208.463 88.8538 227.907 69.0862C243.385 53.3511 260.884 36.8514 237.884 10.3513C214.884 -16.1488 285.801 11.5858 300.301 55.5861C314.802 99.5865 273.745 135.986 269.801 140.586C251.801 161.586 234.395 171.866 243.385 193.851C249.563 208.961 260.631 217.337 276.885 218.851C301.943 221.185 314.385 193.851 319.885 170.851C327.871 137.453 353.852 203.302 364.801 236.586C373.179 262.053 376.539 285.169 371.5 311.5C364.801 346.5 362.353 356.274 341.5 382.5C318.133 411.888 276.885 433.086 256.801 438.086C236.718 443.086 221.861 445.903 199.301 444.586C161.813 442.398 130.948 429.559 108.801 412.086C87.3987 395.2 76.4146 382.213 64.8846 357.352C54.253 334.427 49.7389 321.042 51.3011 294.086C52.9767 265.174 59.9738 234.409 77.8009 211.586C91.0951 194.566 130.716 149.611 124.801 176.586Z" fill="#E54B00"/>
<path d="M154.455 200.608C154.433 200.23 154.412 199.919 154.395 199.682C154.402 199.487 154.412 199.225 154.426 198.899C154.458 198.112 154.511 196.959 154.59 195.518C154.748 192.633 155.012 188.607 155.431 184.056C156.282 174.814 157.733 163.923 160.078 155.973C165.096 138.963 168.559 129.784 178.831 116.423C186.396 106.582 194.295 101.419 203.272 96.0864C204.114 95.5862 204.969 95.083 205.835 94.5731C214.232 89.6296 223.706 84.0524 233.254 74.3456C233.728 73.8637 234.212 73.3738 234.704 72.8759C241.791 65.7047 250.519 56.8723 254.37 46.3285C256.547 40.3668 257.229 33.81 255.49 26.7112C254.256 21.6754 251.866 16.613 248.274 11.4662C249.289 11.9676 250.343 12.5157 251.43 13.1102C267.355 21.8257 286.787 38.5406 293.178 57.9336C299.491 77.0884 293.866 94.8714 285.507 109.053C278.733 120.544 270.896 128.628 266.614 133.045C265.521 134.172 264.66 135.06 264.107 135.705C260.579 139.821 257.098 143.485 253.709 147.053C252.921 147.882 252.139 148.705 251.363 149.528C247.348 153.779 243.4 158.094 240.298 162.591C237.148 167.158 234.639 172.235 233.77 178.109C232.891 184.043 233.777 190.171 236.443 196.69C239.95 205.268 245.017 212.328 251.861 217.453C258.711 222.583 266.916 225.455 276.189 226.319C292.146 227.805 303.82 219.586 311.76 208.797C319.549 198.213 324.329 184.514 327.179 172.596C327.303 172.08 327.425 171.62 327.543 171.212C327.898 171.632 328.289 172.122 328.715 172.691C330.514 175.096 332.509 178.334 334.63 182.27C343.17 198.12 352.238 222.395 357.677 238.93C365.787 263.585 368.865 285.367 364.134 310.09C360.755 327.742 358.585 338.193 354.848 347.495C351.188 356.606 345.877 364.945 335.63 377.832C324.67 391.615 309.293 403.721 294.015 413.035C278.697 422.374 264.076 428.546 254.989 430.808C235.255 435.721 221.228 438.353 199.738 437.099C163.724 434.997 134.342 422.684 113.447 406.198C92.8629 389.958 82.6699 377.875 71.6885 354.196C66.4078 342.81 62.8973 334.307 60.8195 325.507C58.7647 316.804 58.0378 307.474 58.7886 294.52C60.4253 266.279 67.2381 237.293 83.7115 216.203C90.2344 207.852 103.182 192.708 113.591 183.099C114.52 182.242 115.413 181.444 116.263 180.71C112.832 197.601 111.228 211.984 112.806 222.062C113.68 227.641 115.769 233.508 120.743 237.091C126.025 240.898 132.365 240.619 138.153 238.708C143.955 236.791 147.645 232.531 149.911 228.225C152.143 223.986 153.272 219.227 153.869 215.11C154.476 210.926 154.593 206.974 154.566 204.108C154.553 202.663 154.503 201.462 154.455 200.608Z" stroke="black" stroke-width="15"/>
</g>
<path d="M138.279 320.753C141.565 314.272 147.713 304.383 153.265 297.308C153.681 307.649 154.952 317.984 158.212 325.979C160.389 331.316 163.792 336.468 169.253 339.506C174.903 342.649 181.439 342.812 188.286 340.713C194.602 338.778 198.827 335.687 202.147 331.608C204.278 328.991 206.161 325.711 207.872 322.732C208.439 321.743 208.987 320.788 209.52 319.901C212.359 315.168 214.696 308.032 216.298 301.691C217.906 295.323 219.088 288.481 219.088 284.043C219.088 276.542 218.296 267.722 217.06 259.838C216.667 257.33 216.215 254.817 215.704 252.405C218.092 254.21 220.736 256.322 223.571 258.71C239.283 271.945 258.033 291.223 266.643 305.696C268.138 308.209 269.501 310.472 270.748 312.545C275.285 320.08 278.3 325.088 280.647 330.411C283.49 336.86 285.358 343.866 287.068 356.505C289.747 376.317 281.902 397.04 270.972 409.39C262.235 419.262 253.719 426.065 244.408 430.45C235.123 434.824 224.61 437 211.588 437C196.843 437 175.574 435.046 160.106 423.374C152.551 417.673 147.921 414.003 144.176 409.956C140.553 406.042 137.551 401.538 133.801 394.015C126.623 379.616 126.716 369.331 128.549 351.634C129.862 338.964 132.254 332.633 138.279 320.753ZM153.026 286.882C153.027 286.88 153.035 286.911 153.044 286.978C153.029 286.918 153.024 286.884 153.026 286.882Z" fill="#FFDE46" stroke="black" stroke-width="15"/>
<g filter="url(#filter1_d)">
<path d="M416.5 278.5C416.5 388.873 325.923 478.5 214 478.5C102.077 478.5 11.5 388.873 11.5 278.5C11.5 168.127 102.077 78.5 214 78.5C325.923 78.5 416.5 168.127 416.5 278.5Z" stroke="black" stroke-width="15"/>
</g>
<g filter="url(#filter2_d)">
<path d="M118.513 401.438L331.181 189.907C333.812 192.385 337.515 196.548 341.578 203.185C350.221 217.306 360.567 242.754 365.524 287.131C370.566 375.795 293.491 437.284 203.68 437.499C159.517 431.811 137.891 420.77 127.442 412.071C122.231 407.733 119.741 403.932 118.558 401.529C118.543 401.499 118.528 401.468 118.513 401.438Z" stroke="black" stroke-width="15"/>
</g>
<g filter="url(#filter3_d)">
<path d="M303.526 149.787L79.4862 369.989C77.6174 367.954 75.1781 364.737 72.5659 359.803C65.9372 347.282 58.2282 323.754 56.0001 280.808C56.0916 194.011 118.321 121.5 204 121.5C248.28 121.5 274.315 130.418 289.009 138.77C296.261 142.892 300.832 146.921 303.526 149.787Z" stroke="black" stroke-width="15"/>
</g>
<defs>
<filter id="filter0_dd" x="47" y="0" width="330.868" height="452.909" filterUnits="userSpaceOnUse" color-interpolation-filters="sRGB">
<feFlood flood-opacity="0" result="BackgroundImageFix"/>
<feColorMatrix in="SourceAlpha" type="matrix" values="0 0 0 0 0 0 0 0 0 0 0 0 0 0 0 0 0 0 127 0"/>
<feOffset dy="4"/>
<feGaussianBlur stdDeviation="2"/>
<feColorMatrix type="matrix" values="0 0 0 0 0 0 0 0 0 0 0 0 0 0 0 0 0 0 0.25 0"/>
<feBlend mode="normal" in2="BackgroundImageFix" result="effect1_dropShadow"/>
<feColorMatrix in="SourceAlpha" type="matrix" values="0 0 0 0 0 0 0 0 0 0 0 0 0 0 0 0 0 0 127 0"/>
<feOffset dy="4"/>
<feGaussianBlur stdDeviation="2"/>
<feColorMatrix type="matrix" values="0 0 0 0 0 0 0 0 0 0 0 0 0 0 0 0 0 0 0.25 0"/>
<feBlend mode="normal" in2="effect1_dropShadow" result="effect2_dropShadow"/>
<feBlend mode="normal" in="SourceGraphic" in2="effect2_dropShadow" result="shape"/>
</filter>
<filter id="filter1_d" x="0" y="71" width="428" height="423" filterUnits="userSpaceOnUse" color-interpolation-filters="sRGB">
<feFlood flood-opacity="0" result="BackgroundImageFix"/>
<feColorMatrix in="SourceAlpha" type="matrix" values="0 0 0 0 0 0 0 0 0 0 0 0 0 0 0 0 0 0 127 0"/>
<feOffset dy="4"/>
<feGaussianBlur stdDeviation="2"/>
<feColorMatrix type="matrix" values="0 0 0 0 0 0 0 0 0 0 0 0 0 0 0 0 0 0 0.25 0"/>
<feBlend mode="normal" in2="BackgroundImageFix" result="effect1_dropShadow"/>
<feBlend mode="normal" in="SourceGraphic" in2="effect1_dropShadow" result="shape"/>
</filter>
<filter id="filter2_d" x="106" y="180" width="271.261" height="273" filterUnits="userSpaceOnUse" color-interpolation-filters="sRGB">
<feFlood flood-opacity="0" result="BackgroundImageFix"/>
<feColorMatrix in="SourceAlpha" type="matrix" values="0 0 0 0 0 0 0 0 0 0 0 0 0 0 0 0 0 0 127 0"/>
<feOffset dy="4"/>
<feGaussianBlur stdDeviation="2"/>
<feColorMatrix type="matrix" values="0 0 0 0 0 0 0 0 0 0 0 0 0 0 0 0 0 0 0.25 0"/>
<feBlend mode="normal" in2="BackgroundImageFix" result="effect1_dropShadow"/>
<feBlend mode="normal" in="SourceGraphic" in2="effect1_dropShadow" result="shape"/>
</filter>
<filter id="filter3_d" x="44.5" y="114" width="273" height="274" filterUnits="userSpaceOnUse" color-interpolation-filters="sRGB">
<feFlood flood-opacity="0" result="BackgroundImageFix"/>
<feColorMatrix in="SourceAlpha" type="matrix" values="0 0 0 0 0 0 0 0 0 0 0 0 0 0 0 0 0 0 127 0"/>
<feOffset dy="4"/>
<feGaussianBlur stdDeviation="2"/>
<feColorMatrix type="matrix" values="0 0 0 0 0 0 0 0 0 0 0 0 0 0 0 0 0 0 0.25 0"/>
<feBlend mode="normal" in2="BackgroundImageFix" result="effect1_dropShadow"/>
<feBlend mode="normal" in="SourceGraphic" in2="effect1_dropShadow" result="shape"/>
</filter>
</defs>
</svg>
